<svg xmlns="http://www.w3.org/2000/svg" version="1.1" xmlns:xlink="http://www.w3.org/1999/xlink" xmlns:svgjs="http://svgjs.dev/svgjs" width="2000" height="1344" viewBox="0 0 2000 1344"><g transform="matrix(1,0,0,1,-1.1205709322947541,-2.167741935483946)"><svg viewBox="0 0 369 248" data-background-color="#ffffff" preserveAspectRatio="xMidYMid meet" height="1344" width="2000" xmlns="http://www.w3.org/2000/svg" xmlns:xlink="http://www.w3.org/1999/xlink"><g id="tight-bounds" transform="matrix(1,0,0,1,0.20674533700838538,0.4000000000000057)"><svg viewBox="0 0 368.58650932598323 247.2" height="247.2" width="368.58650932598323"><g><svg viewBox="0 0 395.52 265.26349045924667" height="247.2" width="368.58650932598323"><g transform="matrix(1,0,0,1,0,184.08397289682605)"><svg viewBox="0 0 395.52 81.17951756242064" height="81.17951756242064" width="395.52"><g id="textblocktransform"><svg viewBox="0 0 395.52 81.17951756242064" height="81.17951756242064" width="395.52" id="textblock"><g><svg viewBox="0 0 395.52 81.17951756242064" height="81.17951756242064" width="395.52"><g transform="matrix(1,0,0,1,0,0)"><svg width="395.52" viewBox="0.6 -37.65 236.28 48.5" height="81.17951756242064" data-palette-color="#bfdbff"><path d="M24.9-26.45L30.6-26.45 26.05 0 18.55 0 15.6-20.85 12.7 0 5.25 0 0.6-26.45 6.55-26.45 9.25-4.6 12.6-26.45 18.85-26.45 22.05-4.6 24.9-26.45ZM52.95-13.85Q52.95-13.4 52.8-11.3L52.8-11.3 39.15-11.3Q39.35-7.2 40.57-5.58 41.8-3.95 44.05-3.95L44.05-3.95Q45.6-3.95 46.85-4.48 48.1-5 49.55-6.15L49.55-6.15 52.1-2.65Q48.6 0.75 43.7 0.75L43.7 0.75Q38.5 0.75 35.72-2.85 32.95-6.45 32.95-13L32.95-13Q32.95-19.55 35.6-23.35 38.25-27.15 43.1-27.15L43.1-27.15Q47.75-27.15 50.35-23.78 52.95-20.4 52.95-13.85L52.95-13.85ZM46.95-15.3L46.95-15.65Q46.95-19.4 46.05-21.13 45.15-22.85 43.15-22.85L43.15-22.85Q41.3-22.85 40.32-21.18 39.35-19.5 39.15-15.3L39.15-15.3 46.95-15.3ZM74.15-6.4Q74.15-5.1 74.5-4.48 74.84-3.85 75.65-3.45L75.65-3.45 74.4 0.65Q72.34 0.4 71.12-0.45 69.9-1.3 69.3-3.05L69.3-3.05Q67 0.75 62.85 0.75L62.85 0.75Q59.55 0.75 57.6-1.48 55.65-3.7 55.65-7.4L55.65-7.4Q55.65-11.7 58.32-13.95 61-16.2 66.09-16.2L66.09-16.2 68.15-16.2 68.15-18.05Q68.15-20.55 67.27-21.58 66.4-22.6 64.45-22.6L64.45-22.6Q62.1-22.6 58.6-21.3L58.6-21.3 57.2-25.3Q59.2-26.2 61.35-26.68 63.5-27.15 65.45-27.15L65.45-27.15Q74.15-27.15 74.15-18.35L74.15-18.35 74.15-6.4ZM64.5-3.7Q66.9-3.7 68.15-7L68.15-7 68.15-12.55 66.7-12.55Q64.15-12.55 62.97-11.4 61.8-10.25 61.8-7.85L61.8-7.85Q61.8-5.8 62.5-4.75 63.2-3.7 64.5-3.7L64.5-3.7ZM91.09-5L93.24-1.2Q90.79 0.75 87.49 0.75L87.49 0.75Q84.04 0.75 82.24-1.23 80.44-3.2 80.44-6.6L80.44-6.6 80.44-22 77.34-22 77.34-26.45 80.44-26.45 80.44-32.3 86.59-33.05 86.59-26.45 91.59-26.45 90.99-22 86.59-22 86.59-6.6Q86.59-4.2 88.64-4.2L88.64-4.2Q89.29-4.2 89.79-4.38 90.29-4.55 91.09-5L91.09-5ZM108.14-27.15Q110.99-27.15 112.64-25.1 114.29-23.05 114.29-19.6L114.29-19.6 114.29 0 108.14 0 108.14-18.9Q108.14-20.8 107.61-21.63 107.09-22.45 106.09-22.45L106.09-22.45Q103.99-22.45 101.94-18.5L101.94-18.5 101.94 0 95.79 0 95.79-37 101.94-37.65 101.94-23.3Q103.19-25.25 104.66-26.2 106.14-27.15 108.14-27.15L108.14-27.15ZM138.69-13.85Q138.69-13.4 138.54-11.3L138.54-11.3 124.89-11.3Q125.09-7.2 126.31-5.58 127.54-3.95 129.79-3.95L129.79-3.95Q131.34-3.95 132.59-4.48 133.84-5 135.29-6.15L135.29-6.15 137.84-2.65Q134.34 0.75 129.44 0.75L129.44 0.75Q124.24 0.75 121.46-2.85 118.69-6.45 118.69-13L118.69-13Q118.69-19.55 121.34-23.35 123.99-27.15 128.84-27.15L128.84-27.15Q133.49-27.15 136.09-23.78 138.69-20.4 138.69-13.85L138.69-13.85ZM132.69-15.3L132.69-15.65Q132.69-19.4 131.79-21.13 130.89-22.85 128.89-22.85L128.89-22.85Q127.04-22.85 126.06-21.18 125.09-19.5 124.89-15.3L124.89-15.3 132.69-15.3ZM154.63-27.1Q155.78-27.1 156.69-26.75L156.69-26.75 155.69-20.85Q154.69-21.1 153.83-21.1L153.83-21.1Q151.94-21.1 150.83-19.45 149.73-17.8 149.13-14.55L149.13-14.55 149.13 0 142.98 0 142.98-26.45 148.33-26.45 148.78-21.85Q150.63-27.1 154.63-27.1L154.63-27.1ZM186.28-6.4Q186.28-5.1 186.63-4.48 186.98-3.85 187.78-3.45L187.78-3.45 186.53 0.65Q184.48 0.4 183.25-0.45 182.03-1.3 181.43-3.05L181.43-3.05Q179.13 0.75 174.98 0.75L174.98 0.75Q171.68 0.75 169.73-1.48 167.78-3.7 167.78-7.4L167.78-7.4Q167.78-11.7 170.46-13.95 173.13-16.2 178.23-16.2L178.23-16.2 180.28-16.2 180.28-18.05Q180.28-20.55 179.41-21.58 178.53-22.6 176.58-22.6L176.58-22.6Q174.23-22.6 170.73-21.3L170.73-21.3 169.33-25.3Q171.33-26.2 173.48-26.68 175.63-27.15 177.58-27.15L177.58-27.15Q186.28-27.15 186.28-18.35L186.28-18.35 186.28-6.4ZM176.63-3.7Q179.03-3.7 180.28-7L180.28-7 180.28-12.55 178.83-12.55Q176.28-12.55 175.1-11.4 173.93-10.25 173.93-7.85L173.93-7.85Q173.93-5.8 174.63-4.75 175.33-3.7 176.63-3.7L176.63-3.7ZM204.28-27.15Q208.18-27.15 210.18-23.58 212.18-20 212.18-13.3L212.18-13.3Q212.18-6.8 209.9-3.03 207.63 0.75 203.58 0.75L203.58 0.75Q200.38 0.75 198.23-2.1L198.23-2.1 198.23 10.15 192.08 10.85 192.08-26.45 197.53-26.45 197.78-23.25Q199.08-25.25 200.68-26.2 202.28-27.15 204.28-27.15L204.28-27.15ZM201.93-3.95Q203.83-3.95 204.83-6.13 205.83-8.3 205.83-13.25L205.83-13.25Q205.83-18.45 204.98-20.5 204.13-22.55 202.33-22.55L202.33-22.55Q200.03-22.55 198.23-19.25L198.23-19.25 198.23-6.45Q199.83-3.95 201.93-3.95L201.93-3.95ZM228.98-27.15Q232.88-27.15 234.88-23.58 236.88-20 236.88-13.3L236.88-13.3Q236.88-6.8 234.6-3.03 232.33 0.75 228.28 0.75L228.28 0.75Q225.08 0.75 222.93-2.1L222.93-2.1 222.93 10.15 216.78 10.85 216.78-26.45 222.23-26.45 222.48-23.25Q223.78-25.25 225.38-26.2 226.98-27.15 228.98-27.15L228.98-27.15ZM226.63-3.95Q228.53-3.95 229.53-6.13 230.53-8.3 230.53-13.25L230.53-13.25Q230.53-18.45 229.68-20.5 228.83-22.55 227.03-22.55L227.03-22.55Q224.73-22.55 222.93-19.25L222.93-19.25 222.93-6.45Q224.53-3.95 226.63-3.95L226.63-3.95Z" opacity="1" transform="matrix(1,0,0,1,0,0)" fill="#bfdbff" class="wordmark-text-0" data-fill-palette-color="primary" id="text-0"></path></svg></g></svg></g></svg></g></svg></g><g transform="matrix(1,0,0,1,104.35430110654299,0)"><svg viewBox="0 0 186.811397786914 164.91943710876004" height="164.91943710876004" width="186.811397786914"><g><svg xmlns="http://www.w3.org/2000/svg" xmlns:xlink="http://www.w3.org/1999/xlink" version="1.1" x="0" y="0" viewBox="3.1 4.9 25.599999999999998 22.6" enable-background="new 0 0 32 32" xml:space="preserve" height="164.91943710876004" width="186.811397786914" class="icon-icon-0" data-fill-palette-color="accent" id="icon-0"><path fill="#f67357" d="M11.5 8.4V5.9C11.5 5.3 11.9 4.9 12.5 4.9S13.5 5.3 13.5 5.9V8.4C13.5 9 13.1 9.4 12.5 9.4S11.5 9 11.5 8.4M16.8 11C17 11 17.3 10.9 17.5 10.7L19.2 9.1C19.6 8.7 19.6 8.1 19.2 7.7S18.2 7.3 17.8 7.7L16.1 9.3C15.7 9.7 15.7 10.3 16.1 10.7 16.3 10.9 16.5 11 16.8 11M7.5 10.7C7.7 10.9 8 11 8.2 11 8.5 11 8.7 10.9 8.9 10.7 9.3 10.3 9.3 9.7 8.9 9.3L7.2 7.7C6.8 7.3 6.2 7.3 5.8 7.7S5.4 8.7 5.8 9.1zM7.5 14.4C7.5 13.8 7.1 13.4 6.5 13.4H4.1C3.5 13.4 3.1 13.8 3.1 14.4S3.5 15.4 4.1 15.4H6.5C7.1 15.4 7.5 15 7.5 14.4M28.3 21.9C28.4 22.2 28.4 22.5 28.4 22.7 28.4 25.3 26.2 27.5 23.7 27.5H9.4C6.9 27.5 4.7 25.3 4.7 22.8 4.7 20.4 6.3 18.5 8.4 18.1 8.5 17.8 8.5 17.5 8.6 17.2 8 16.4 7.7 15.5 7.7 14.4 7.7 11.8 9.9 9.6 12.5 9.6 14.9 9.6 16.9 11.4 17.2 13.8 18.4 13 19.8 12.5 21.4 12.5 25.4 12.5 28.7 15.8 28.7 19.8 28.7 20.6 28.6 21.2 28.3 21.9M9.8 15.3C10.8 14.3 12.1 13.7 13.6 13.7 14.2 13.7 14.7 13.8 15.3 14 15.1 12.7 13.9 11.6 12.5 11.6 11 11.6 9.7 12.9 9.7 14.4 9.7 14.7 9.8 15 9.8 15.3M26.4 21.4C26.6 20.9 26.7 20.4 26.7 19.8 26.7 16.8 24.4 14.5 21.4 14.5 19.8 14.5 18.3 15.2 17.3 16.5 17.1 16.7 16.9 16.8 16.7 16.8H16.6C16.3 16.8 16.1 16.7 15.9 16.6 15.6 16.3 15.3 16.1 14.9 16 14.5 15.8 14.1 15.8 13.7 15.8 12.7 15.8 11.8 16.2 11.2 16.9 10.8 17.4 10.5 18 10.4 18.7V19C10.4 19.6 10 20 9.4 20 8 20 6.8 21.2 6.8 22.7S8.1 25.5 9.5 25.5H23.8C25.2 25.5 26.5 24.2 26.5 22.8V22.1C26.3 21.9 26.3 21.6 26.4 21.4" data-fill-palette-color="accent"></path></svg></g></svg></g><g></g></svg></g><defs></defs></svg><rect width="368.58650932598323" height="247.2" fill="none" stroke="none" visibility="hidden"></rect></g></svg></g></svg>